<svg id="visual" viewBox="0 0 1920 1080" width="1920" height="1080" xmlns="http://www.w3.org/2000/svg" xmlns:xlink="http://www.w3.org/1999/xlink" version="1.1"><path d="M0 657L45.7 676.5C91.3 696 182.7 735 274.2 740.2C365.7 745.3 457.3 716.7 548.8 692.7C640.3 668.7 731.7 649.3 823 657C914.3 664.7 1005.7 699.3 1097 705.2C1188.3 711 1279.7 688 1371.2 674.3C1462.7 660.7 1554.3 656.3 1645.8 671.3C1737.3 686.3 1828.7 720.7 1874.3 737.8L1920 755L1920 1081L1874.3 1081C1828.7 1081 1737.3 1081 1645.8 1081C1554.3 1081 1462.7 1081 1371.2 1081C1279.7 1081 1188.3 1081 1097 1081C1005.7 1081 914.3 1081 823 1081C731.7 1081 640.3 1081 548.8 1081C457.3 1081 365.7 1081 274.2 1081C182.7 1081 91.3 1081 45.7 1081L0 1081Z" fill="#fa7268"></path><path d="M0 716L45.7 721.5C91.3 727 182.7 738 274.2 761.2C365.7 784.3 457.3 819.7 548.8 826.2C640.3 832.7 731.7 810.3 823 795C914.3 779.7 1005.7 771.3 1097 761.7C1188.3 752 1279.7 741 1371.2 749.7C1462.7 758.3 1554.3 786.7 1645.8 792C1737.3 797.3 1828.7 779.7 1874.3 770.8L1920 762L1920 1081L1874.3 1081C1828.7 1081 1737.3 1081 1645.8 1081C1554.3 1081 1462.7 1081 1371.2 1081C1279.7 1081 1188.3 1081 1097 1081C1005.7 1081 914.3 1081 823 1081C731.7 1081 640.3 1081 548.8 1081C457.3 1081 365.7 1081 274.2 1081C182.7 1081 91.3 1081 45.7 1081L0 1081Z" fill="#ef5f67"></path><path d="M0 848L45.7 843.2C91.3 838.3 182.7 828.7 274.2 837.3C365.7 846 457.3 873 548.8 874.5C640.3 876 731.7 852 823 849.3C914.3 846.7 1005.7 865.3 1097 864.7C1188.3 864 1279.7 844 1371.2 840.7C1462.7 837.3 1554.3 850.7 1645.8 860.3C1737.3 870 1828.7 876 1874.3 879L1920 882L1920 1081L1874.3 1081C1828.7 1081 1737.3 1081 1645.8 1081C1554.3 1081 1462.7 1081 1371.2 1081C1279.7 1081 1188.3 1081 1097 1081C1005.7 1081 914.3 1081 823 1081C731.7 1081 640.3 1081 548.8 1081C457.3 1081 365.7 1081 274.2 1081C182.7 1081 91.3 1081 45.7 1081L0 1081Z" fill="#e34c67"></path><path d="M0 920L45.7 913.3C91.3 906.7 182.7 893.3 274.2 902.5C365.7 911.7 457.3 943.3 548.8 941.3C640.3 939.3 731.7 903.7 823 889.2C914.3 874.7 1005.7 881.3 1097 891.7C1188.3 902 1279.7 916 1371.2 925.7C1462.7 935.3 1554.3 940.7 1645.8 947C1737.3 953.3 1828.7 960.7 1874.3 964.3L1920 968L1920 1081L1874.3 1081C1828.7 1081 1737.3 1081 1645.8 1081C1554.3 1081 1462.7 1081 1371.2 1081C1279.7 1081 1188.3 1081 1097 1081C1005.7 1081 914.3 1081 823 1081C731.7 1081 640.3 1081 548.8 1081C457.3 1081 365.7 1081 274.2 1081C182.7 1081 91.3 1081 45.7 1081L0 1081Z" fill="#d53867"></path><path d="M0 1002L45.7 1006.5C91.3 1011 182.7 1020 274.2 1013.3C365.7 1006.7 457.3 984.3 548.8 974.7C640.3 965 731.7 968 823 973.2C914.3 978.3 1005.7 985.7 1097 984.3C1188.3 983 1279.7 973 1371.2 965.7C1462.7 958.3 1554.3 953.7 1645.8 958.7C1737.3 963.7 1828.7 978.3 1874.3 985.7L1920 993L1920 1081L1874.3 1081C1828.7 1081 1737.3 1081 1645.8 1081C1554.3 1081 1462.7 1081 1371.2 1081C1279.7 1081 1188.3 1081 1097 1081C1005.7 1081 914.3 1081 823 1081C731.7 1081 640.3 1081 548.8 1081C457.3 1081 365.7 1081 274.2 1081C182.7 1081 91.3 1081 45.7 1081L0 1081Z" fill="#c62368"></path></svg>